# xmcd
#
# Track frame offsets: 
#        150
#        22991
#        41460
#        65415
#        84708
#        109576
#        132135
#        151211
#        168908
#        189249
#        212393
#        233505
#        251058
#        269836
#
# Disc length: 3869 seconds
#
# Revision: 3
# Processed by: cddbd v1.5.2PL0 Copyright (c) Steve Scherf et al.
# Submitted via: ExactAudioCopy v1.0b1
#
DISCID=af0f1b0e
DTITLE=Kenny G Habana - At Last...The Duets Album
DYEAR=2004
DGENRE=Jazz
TTITLE0=Everything I Do (ft. LeAnn Rimes)
TTITLE1=At Last (ft. Arturo Sandoval)
TTITLE2=I Believe I Can Fly (ft. Yolanda Adams)
TTITLE3=Careless Whisper (ft. Brian McKnight and Earl Klugh)
TTITLE4=Beautiful (ft. Chaka Khan)
TTITLE5=Forever Young (ft. Marcia Hines)
TTITLE6=Pick Up The Pieces (ft. David Sanborn)
TTITLE7=Baby Come To Me (ft. Daryl Hall)
TTITLE8=Misty (ft. Gladys Knight)
TTITLE9=Don't Know Why (ft. David Benoit)
TTITLE10=The Way You Move (ft. Earth, Wind and Fire)
TTITLE11=Sorry Seems To Be The Hardest Word (ft. Richard Marx)
TTITLE12=Alfie (ft. Burt Bacharach)
TTITLE13=The Music That Makes Me Dance (ft. Barbra Streisand)
EXTD=YEAR: 2004
EXTT0=
EXTT1=
EXTT2=
EXTT3=
EXTT4=
EXTT5=
EXTT6=
EXTT7=
EXTT8=
EXTT9=
EXTT10=
EXTT11=
EXTT12=
EXTT13=
PLAYORDER=
